<?xml version="1.0" encoding="UTF-8"?>
<svg xmlns="http://www.w3.org/2000/svg" viewBox="60 5 340 275" width="340" height="275">
  <!-- RS Digital Solutions — Honeycomb Logo (Dark Theme) -->

  <!-- Row 0 -->
  <polygon points="130,25 150,13 170,25 170,48 150,60 130,48" fill="none" stroke="#5f83b3" stroke-width="0.4" opacity="0.06"/>
  <polygon points="170,25 190,13 210,25 210,48 190,60 170,48" fill="none" stroke="#5f83b3" stroke-width="0.4" opacity="0.08"/>
  <polygon points="210,25 230,13 250,25 250,48 230,60 210,48" fill="none" stroke="#5f83b3" stroke-width="0.4" opacity="0.10"/>
  <polygon points="250,25 270,13 290,25 290,48 270,60 250,48" fill="none" stroke="#5f83b3" stroke-width="0.4" opacity="0.08"/>
  <polygon points="290,25 310,13 330,25 330,48 310,60 290,48" fill="none" stroke="#5f83b3" stroke-width="0.4" opacity="0.06"/>

  <!-- Row 1 -->
  <polygon points="110,48 130,36 150,48 150,71 130,83 110,71" fill="none" stroke="#5f83b3" stroke-width="0.4" opacity="0.06"/>
  <polygon points="150,48 170,36 190,48 190,71 170,83 150,71" fill="none" stroke="#5f83b3" stroke-width="0.4" opacity="0.09"/>
  <polygon points="190,48 210,36 230,48 230,71 210,83 190,71" fill="none" stroke="#5f83b3" stroke-width="0.4" opacity="0.12"/>
  <polygon points="230,48 250,36 270,48 270,71 250,83 230,71" fill="none" stroke="#5f83b3" stroke-width="0.4" opacity="0.12"/>
  <polygon points="270,48 290,36 310,48 310,71 290,83 270,71" fill="none" stroke="#5f83b3" stroke-width="0.4" opacity="0.09"/>
  <polygon points="310,48 330,36 350,48 350,71 330,83 310,71" fill="none" stroke="#5f83b3" stroke-width="0.4" opacity="0.06"/>

  <!-- Row 2 -->
  <polygon points="90,71 110,59 130,71 130,94 110,106 90,94" fill="none" stroke="#5f83b3" stroke-width="0.4" opacity="0.05"/>
  <polygon points="130,71 150,59 170,71 170,94 150,106 130,94" fill="none" stroke="#5f83b3" stroke-width="0.4" opacity="0.10"/>
  <polygon points="170,71 190,59 210,71 210,94 190,106 170,94" fill="none" stroke="#5f83b3" stroke-width="0.4" opacity="0.15"/>
  <polygon points="210,71 230,59 250,71 250,94 230,106 210,94" fill="none" stroke="#5f83b3" stroke-width="0.4" opacity="0.18"/>
  <polygon points="250,71 270,59 290,71 290,94 270,106 250,94" fill="none" stroke="#5f83b3" stroke-width="0.4" opacity="0.15"/>
  <polygon points="290,71 310,59 330,71 330,94 310,106 290,94" fill="none" stroke="#5f83b3" stroke-width="0.4" opacity="0.10"/>
  <polygon points="330,71 350,59 370,71 370,94 350,106 330,94" fill="none" stroke="#5f83b3" stroke-width="0.4" opacity="0.05"/>

  <!-- Row 3 (center) -->
  <polygon points="70,94 90,82 110,94 110,117 90,129 70,117" fill="none" stroke="#5f83b3" stroke-width="0.4" opacity="0.05"/>
  <polygon points="110,94 130,82 150,94 150,117 130,129 110,117" fill="none" stroke="#5f83b3" stroke-width="0.4" opacity="0.12"/>
  <polygon points="150,94 170,82 190,94 190,117 170,129 150,117" fill="none" stroke="#5f83b3" stroke-width="0.5" opacity="0.20"/>
  <polygon points="190,94 210,82 230,94 230,117 210,129 190,117" fill="none" stroke="#5f83b3" stroke-width="0.6" opacity="0.30"/>
  <polygon points="230,94 250,82 270,94 270,117 250,129 230,117" fill="none" stroke="#5f83b3" stroke-width="0.6" opacity="0.30"/>
  <polygon points="270,94 290,82 310,94 310,117 290,129 270,117" fill="none" stroke="#5f83b3" stroke-width="0.5" opacity="0.20"/>
  <polygon points="310,94 330,82 350,94 350,117 330,129 310,117" fill="none" stroke="#5f83b3" stroke-width="0.4" opacity="0.12"/>
  <polygon points="350,94 370,82 390,94 390,117 370,129 350,117" fill="none" stroke="#5f83b3" stroke-width="0.4" opacity="0.05"/>

  <!-- Row 4 -->
  <polygon points="90,117 110,105 130,117 130,140 110,152 90,140" fill="none" stroke="#5f83b3" stroke-width="0.4" opacity="0.05"/>
  <polygon points="130,117 150,105 170,117 170,140 150,152 130,140" fill="none" stroke="#5f83b3" stroke-width="0.4" opacity="0.10"/>
  <polygon points="170,117 190,105 210,117 210,140 190,152 170,140" fill="none" stroke="#5f83b3" stroke-width="0.4" opacity="0.15"/>
  <polygon points="210,117 230,105 250,117 250,140 230,152 210,140" fill="none" stroke="#5f83b3" stroke-width="0.4" opacity="0.18"/>
  <polygon points="250,117 270,105 290,117 290,140 270,152 250,140" fill="none" stroke="#5f83b3" stroke-width="0.4" opacity="0.15"/>
  <polygon points="290,117 310,105 330,117 330,140 310,152 290,140" fill="none" stroke="#5f83b3" stroke-width="0.4" opacity="0.10"/>
  <polygon points="330,117 350,105 370,117 370,140 350,152 330,140" fill="none" stroke="#5f83b3" stroke-width="0.4" opacity="0.05"/>

  <!-- Row 5 -->
  <polygon points="110,140 130,128 150,140 150,163 130,175 110,163" fill="none" stroke="#5f83b3" stroke-width="0.4" opacity="0.06"/>
  <polygon points="150,140 170,128 190,140 190,163 170,175 150,163" fill="none" stroke="#5f83b3" stroke-width="0.4" opacity="0.09"/>
  <polygon points="190,140 210,128 230,140 230,163 210,175 190,163" fill="none" stroke="#5f83b3" stroke-width="0.4" opacity="0.12"/>
  <polygon points="230,140 250,128 270,140 270,163 250,175 230,163" fill="none" stroke="#5f83b3" stroke-width="0.4" opacity="0.12"/>
  <polygon points="270,140 290,128 310,140 310,163 290,175 270,163" fill="none" stroke="#5f83b3" stroke-width="0.4" opacity="0.09"/>
  <polygon points="310,140 330,128 350,140 350,163 330,175 310,163" fill="none" stroke="#5f83b3" stroke-width="0.4" opacity="0.06"/>

  <!-- Row 6 -->
  <polygon points="130,163 150,151 170,163 170,186 150,198 130,186" fill="none" stroke="#5f83b3" stroke-width="0.4" opacity="0.06"/>
  <polygon points="170,163 190,151 210,163 210,186 190,198 170,186" fill="none" stroke="#5f83b3" stroke-width="0.4" opacity="0.08"/>
  <polygon points="210,163 230,151 250,163 250,186 230,198 210,186" fill="none" stroke="#5f83b3" stroke-width="0.4" opacity="0.10"/>
  <polygon points="250,163 270,151 290,163 290,186 270,198 250,186" fill="none" stroke="#5f83b3" stroke-width="0.4" opacity="0.08"/>
  <polygon points="290,163 310,151 330,163 330,186 310,198 290,186" fill="none" stroke="#5f83b3" stroke-width="0.4" opacity="0.06"/>

  <!-- MAIN HEX -->
  <polygon points="230,52 290,87 290,157 230,192 170,157 170,87" fill="none" stroke="#5f83b3" stroke-width="0.6" opacity="0.12"/>
  <polygon points="230,60 285,92 285,153 230,185 175,153 175,92" fill="none" stroke="#7ba7cc" stroke-width="2.5"/>
  <polygon points="230,73 274,100 274,145 230,172 186,145 186,100" fill="none" stroke="#5f83b3" stroke-width="0.5" opacity="0.2"/>

  <text x="230" y="138" text-anchor="middle" dominant-baseline="central" font-family="-apple-system, BlinkMacSystemFont, 'Segoe UI', Helvetica, Arial, sans-serif" font-size="64" font-weight="500" fill="#ffffff" letter-spacing="-3">RS</text>

  <circle cx="230" cy="60" r="3.5" fill="#7ba7cc"/>
  <circle cx="285" cy="92" r="3.5" fill="#7ba7cc"/>
  <circle cx="285" cy="153" r="3.5" fill="#7ba7cc"/>
  <circle cx="230" cy="185" r="3.5" fill="#7ba7cc"/>
  <circle cx="175" cy="153" r="3.5" fill="#7ba7cc"/>
  <circle cx="175" cy="92" r="3.5" fill="#7ba7cc"/>

  <line x1="230" y1="60" x2="230" y2="42" stroke="#7ba7cc" stroke-width="1" opacity="0.35"/>
  <circle cx="230" cy="39" r="2" fill="#7ba7cc" opacity="0.35"/>
  <line x1="285" y1="92" x2="302" y2="82" stroke="#7ba7cc" stroke-width="1" opacity="0.35"/>
  <circle cx="305" cy="80" r="2" fill="#7ba7cc" opacity="0.35"/>
  <line x1="285" y1="153" x2="302" y2="163" stroke="#7ba7cc" stroke-width="1" opacity="0.35"/>
  <circle cx="305" cy="165" r="2" fill="#7ba7cc" opacity="0.35"/>
  <line x1="175" y1="92" x2="158" y2="82" stroke="#7ba7cc" stroke-width="1" opacity="0.35"/>
  <circle cx="155" cy="80" r="2" fill="#7ba7cc" opacity="0.35"/>
  <line x1="175" y1="153" x2="158" y2="163" stroke="#7ba7cc" stroke-width="1" opacity="0.35"/>
  <circle cx="155" cy="165" r="2" fill="#7ba7cc" opacity="0.35"/>
  <line x1="230" y1="185" x2="230" y2="203" stroke="#7ba7cc" stroke-width="1" opacity="0.35"/>
  <circle cx="230" cy="206" r="2" fill="#7ba7cc" opacity="0.35"/>

  <line x1="175" y1="230" x2="285" y2="230" stroke="#7ba7cc" stroke-width="1.2" opacity="0.4"/>
  <circle cx="175" cy="230" r="2" fill="#7ba7cc" opacity="0.4"/>
  <circle cx="285" cy="230" r="2" fill="#7ba7cc" opacity="0.4"/>

  <text x="230" y="258" text-anchor="middle" font-family="-apple-system, BlinkMacSystemFont, 'Segoe UI', Helvetica, Arial, sans-serif" font-size="15" font-weight="500" fill="#9fb8d9" letter-spacing="4">DIGITAL SOLUTIONS</text>

  <circle cx="200" cy="275" r="1.5" fill="#7ba7cc" opacity="0.25"/>
  <circle cx="215" cy="275" r="1.5" fill="#7ba7cc" opacity="0.18"/>
  <circle cx="230" cy="275" r="1.5" fill="#7ba7cc" opacity="0.12"/>
  <circle cx="245" cy="275" r="1.5" fill="#7ba7cc" opacity="0.18"/>
  <circle cx="260" cy="275" r="1.5" fill="#7ba7cc" opacity="0.25"/>
</svg>
