<?xml version="1.0" encoding="UTF-8"?>
<svg xmlns="http://www.w3.org/2000/svg" viewBox="150 40 160 170" width="160" height="170">
  <!-- RS Digital Solutions — Compact Nav Logo (Dark Theme) -->

  <!-- Background honeycomb hints (subtle) -->
  <polygon points="190,48 210,36 230,48 230,71 210,83 190,71" fill="none" stroke="#5f83b3" stroke-width="0.4" opacity="0.12"/>
  <polygon points="230,48 250,36 270,48 270,71 250,83 230,71" fill="none" stroke="#5f83b3" stroke-width="0.4" opacity="0.12"/>
  <polygon points="170,71 190,59 210,71 210,94 190,106 170,94" fill="none" stroke="#5f83b3" stroke-width="0.4" opacity="0.15"/>
  <polygon points="250,71 270,59 290,71 290,94 270,106 250,94" fill="none" stroke="#5f83b3" stroke-width="0.4" opacity="0.15"/>
  <polygon points="170,117 190,105 210,117 210,140 190,152 170,140" fill="none" stroke="#5f83b3" stroke-width="0.4" opacity="0.15"/>
  <polygon points="250,117 270,105 290,117 290,140 270,152 250,140" fill="none" stroke="#5f83b3" stroke-width="0.4" opacity="0.15"/>
  <polygon points="190,140 210,128 230,140 230,163 210,175 190,163" fill="none" stroke="#5f83b3" stroke-width="0.4" opacity="0.12"/>
  <polygon points="230,140 250,128 270,140 270,163 250,175 230,163" fill="none" stroke="#5f83b3" stroke-width="0.4" opacity="0.12"/>

  <!-- MAIN HEX -->
  <polygon points="230,52 290,87 290,157 230,192 170,157 170,87" fill="none" stroke="#5f83b3" stroke-width="0.6" opacity="0.12"/>
  <polygon points="230,60 285,92 285,153 230,185 175,153 175,92" fill="none" stroke="#7ba7cc" stroke-width="2.5"/>
  <polygon points="230,73 274,100 274,145 230,172 186,145 186,100" fill="none" stroke="#5f83b3" stroke-width="0.5" opacity="0.2"/>

  <!-- RS text -->
  <text x="230" y="138" text-anchor="middle" dominant-baseline="central" font-family="-apple-system, BlinkMacSystemFont, 'Segoe UI', Helvetica, Arial, sans-serif" font-size="64" font-weight="500" fill="#ffffff" letter-spacing="-3">RS</text>

  <!-- Corner dots -->
  <circle cx="230" cy="60" r="3.5" fill="#7ba7cc"/>
  <circle cx="285" cy="92" r="3.5" fill="#7ba7cc"/>
  <circle cx="285" cy="153" r="3.5" fill="#7ba7cc"/>
  <circle cx="230" cy="185" r="3.5" fill="#7ba7cc"/>
  <circle cx="175" cy="153" r="3.5" fill="#7ba7cc"/>
  <circle cx="175" cy="92" r="3.5" fill="#7ba7cc"/>

  <!-- Connector lines -->
  <line x1="230" y1="60" x2="230" y2="46" stroke="#7ba7cc" stroke-width="1" opacity="0.35"/>
  <circle cx="230" cy="43" r="2" fill="#7ba7cc" opacity="0.35"/>
  <line x1="285" y1="92" x2="298" y2="84" stroke="#7ba7cc" stroke-width="1" opacity="0.35"/>
  <circle cx="301" cy="82" r="2" fill="#7ba7cc" opacity="0.35"/>
  <line x1="285" y1="153" x2="298" y2="161" stroke="#7ba7cc" stroke-width="1" opacity="0.35"/>
  <circle cx="301" cy="163" r="2" fill="#7ba7cc" opacity="0.35"/>
  <line x1="175" y1="92" x2="162" y2="84" stroke="#7ba7cc" stroke-width="1" opacity="0.35"/>
  <circle cx="159" cy="82" r="2" fill="#7ba7cc" opacity="0.35"/>
  <line x1="175" y1="153" x2="162" y2="161" stroke="#7ba7cc" stroke-width="1" opacity="0.35"/>
  <circle cx="159" cy="163" r="2" fill="#7ba7cc" opacity="0.35"/>
  <line x1="230" y1="185" x2="230" y2="199" stroke="#7ba7cc" stroke-width="1" opacity="0.35"/>
  <circle cx="230" cy="202" r="2" fill="#7ba7cc" opacity="0.35"/>
</svg>
