<?xml version="1.0" encoding="utf-8"?>
<!-- Generator: Adobe Illustrator 19.0.0, SVG Export Plug-In . SVG Version: 6.00 Build 0)  -->
<svg version="1.1" id="Camada_1" xmlns="http://www.w3.org/2000/svg" xmlns:xlink="http://www.w3.org/1999/xlink" x="0px" y="0px"
	 viewBox="0 0 370.1 142.6" style="enable-background:new 0 0 370.1 142.6;" xml:space="preserve">
<style type="text/css">
	.st0{fill:#D30000;}
	.st1{fill:#FFFFFF;}
</style>
<g>
	<path id="XMLID_45_" class="st0" d="M280.4,119.5h-2.3c-7.1,0-14.2,0-21.2,0.1c0.2,0.5,0.2,0.9,0.2,1.1c0,0.7-0.1,1.4-0.2,2.2
		c1.2,0,2.5,0,3.7,0c0.6-0.5,1.4-0.8,2.1-0.9c0,0,0.1,0,0.1,0c0.7,0,1.3,0.4,1.7,0.9c7.4,0.1,14.7,0.2,21.8,0.4
		c1-1.4,2.1-2.7,3.1-3.8H281v0C280.8,119.5,280.6,119.5,280.4,119.5L280.4,119.5z"/>
	<path id="XMLID_44_" class="st0" d="M167.3,119.6L167.3,119.6c0,0,0,0-0.1,0.1L167.3,119.6z"/>
	<path id="XMLID_43_" class="st0" d="M333.2,120.2c0.2,0.1,0.4,0.2,0.7,0.3c0.4,0.2,1.3,0.7,1.3,1.7c0,0.4-0.1,0.7-0.2,1
		c0,0,0,0,0,0c0.6-0.7,1.9-1.8,2.9-1.9l0.1,0c0.7,0,1.3,0.4,1.5,1c0.1,0,0.1,0,0.2,0c1.2-0.2,2.1-0.4,2.7-0.4c0.2,0,0.8,0,1.3,0.5
		c0.6,0.7,0.9,1.3,1,2l0,0.1c0,0.7-0.2,1.2-0.4,1.6c0.1,0,0.2,0,0.3,0c0.3-0.6,0.7-1.2,1-1.6c0.8-1.1,2.1-2.2,3.4-2.6
		c-0.1-0.2-0.1-0.5-0.1-0.7c0-0.6,0.1-1.1,0.4-1.5c-4-0.1-9.1-0.1-14.9-0.2C333.8,119.8,333.5,120,333.2,120.2z"/>
	<path id="XMLID_42_" class="st0" d="M329.7,121.7c-0.5-0.1-0.9-0.5-1-0.9c-2.2,1.2-4,2.6-5.4,4c0.9,0,1.7,0.1,2.6,0.1L329.7,121.7z
		"/>
	<path id="XMLID_41_" class="st0" d="M235.5,122.6c0.4,0,0.6,0.1,0.9,0.2c2.7,0,5.4,0,8.2,0c1.9,0,3.8,0,5.8,0c0.9-1.2,2-2.3,3-3.2
		c-36,0.2-68.5,0.4-73.5,0.5L179,124c17.5-0.6,36.1-1,55.4-1.2c0.3-0.1,0.6-0.1,0.9-0.2C235.4,122.6,235.4,122.6,235.5,122.6z"/>
	<path id="XMLID_40_" class="st0" d="M318.6,121.1c0.2-0.3,0.7-0.8,1.5-1.6c-7.5,0-15.7,0-24.3,0c-0.5,0.9-1.3,2.1-2.8,4
		c2.4,0.1,4.8,0.2,7.2,0.2c0.9-0.4,1.8-0.6,2.7-0.6c0.1,0,0.2,0,0.3,0c1.2,0,2,0.4,2.4,0.9c3.6,0.1,7.2,0.3,10.8,0.5
		C317,123.2,317.8,122,318.6,121.1z"/>
	<path id="XMLID_39_" class="st0" d="M136.5,125.3c0.6-0.8,1.4-1.2,2.2-1.6c2.8-1.3,6.8-2.4,9.9-2.5c0.3,0,0.7,0,1,0
		c1.9,0,4.5,0.2,6.4,1.4c0.7,0.4,1.4,1,1.9,1.7c3.1-0.2,5.5-0.3,7-0.4l2.4-4.2H54.8l5.2,11.3C82.2,128.7,113.5,126.6,136.5,125.3z"
		/>
	<path id="XMLID_38_" class="st1" d="M280.4,119.5c-0.8,0-1.5,0-2.3,0L280.4,119.5L280.4,119.5z"/>
	<path d="M83.7,117.8l-0.9-2l-7-58.6l-9.4,3.8l-16.7,6.8L5.3,130.5L0,134.5h16.2h0.2l0.1-4l15.3-21.6h23.4h0.2l0.8,6.3l-0.5,0.8
		l-1.8,2L83.7,117.8z M52.2,79.6l0.2,0.9l2.5,21.9l-0.4,0.2h-0.2H36.1L52.2,79.6z"/>
	<path id="XMLID_35_" d="M87.4,115c-0.4,1.3-0.9,2.3-1.6,2.9h11.1h0.2l-0.4-1.4v-0.9l3.3-15.7l0.5-2.1c2.5-1.3,4.5-1.4,6.1-0.3
		l-0.1,0.8l-3.2,15.4c-0.5,1.3-1.1,2.7-1.8,4.1l11.8,0.1l-1-1.6l3.1-14.7c0.4-1.5,0.7-2.8,0.8-4c0.1-1.2,0.1-2.3,0-3.2
		c-0.1-1.9-1.8-2.8-5.3-2.6l-5-0.1c-2.4,0.1-4,0.9-4.8,2.7l0.6-2.8h-0.2H91.6l0.4,2.2L87.4,115z"/>
	<path id="XMLID_34_" d="M125.1,97.3l-3.4,16l0.3,2.1c1.3,1.9,4.1,2.7,8.2,2.3l6.3-0.4l1.2-5.4c-2.4,0.8-4.2,0.6-5.7-0.5l-0.1-0.6
		l2.9-13.7l6-0.1l1.2-5.4h-0.2h-5.9c0.3-2.3,0.7-3.9,1.5-5.1h-0.2h-10.4c0.3,1.2,0.1,2.9-0.6,5.1h-0.2h-4.2l-1.2,5.5h4.4H125.1z"/>
	<path d="M144.4,96.2l-3.5,16.7l-0.1,1.8c-0.2,1.3,0.5,2.4,2.2,3.1l22.3,0.1c0.2-0.7,0.3-1.1,0.4-1.2l0.2-0.8l0.4-1.2
		c0.3-0.6,0.4-1.2,0.6-1.6c0.1-0.5,0.2-0.9,0.3-1.3c-2.9,1.1-7.2,1.5-13,1.2c-1.1,0.1-1.9,0-2.5-0.2c-0.5-1.6-0.5-3.1,0.2-4.7
		l0.8-0.2h14.4h0.2l1-0.2l2.4-11.4l0.1-0.9l-0.5-1.7c-0.5-0.9-1.1-1.6-1.9-1.9h-0.2H149c-1.3,0.5-2.4,1.2-3.3,2.1
		C145.1,94.7,144.6,95.6,144.4,96.2z M158.1,96.5c2.6-0.2,3.8,0.5,3.8,1.9l-0.8,3.9h-0.2H153l0.8-3.9
		C154,97.1,155.4,96.5,158.1,96.5z"/>
	<path d="M179.4,115.3c0,1.3,0.5,2.2,1.5,2.5h8.9h0.2c0.7,0,1.4-0.1,2.1-0.3c0.4-0.1,0.9-0.3,1.5-0.6l0.3-0.2
		c0.5-0.4,0.9-0.9,1.3-1.4c0.4-0.5,0.7-1.1,1.1-1.8l0.5-1.6l0.4-1.1l0.4-1.9l2.9-13.5v-0.8c-0.1-0.6-0.4-1.4-1-2.4
		c-0.6-0.5-1-0.7-1.5-0.8h-0.2h-23.2l-0.1,3.9l-5.3,24.6l-1.7,3.1l-0.1,0.5h10.1h0.2l1.5-7.3L179.4,115.3z M187.6,111.1
		c-0.2,0.5-0.6,1-1.1,1.4h-0.2h-4.9c-0.2-0.2-0.4-0.6-0.5-1.2l0.5-2.2l2.4-11.2l0.7-0.8c1.7-0.9,3.1-1.1,4.2-0.8
		c1.2,0.4,1.7,0.9,1.6,1.6l-2.3,11.1L187.6,111.1z"/>
	<path id="XMLID_29_" d="M274.3,65.1h-0.2h-27.6c1.1,0.9,1.7,2.1,1.8,3.5l-3.1,14.7c-0.1,0.7-0.2,1.4-0.3,2
		c-0.1,0.6-0.3,1.1-0.6,1.6H244h-14.4l0.1-1.1l3.6-17c0.9-1.6,1.9-2.9,2.8-3.7h-0.2h-26.6c0.8,1.3,1.2,2.6,1.2,4l-8.5,40l-0.8,4
		c-1,1.8-2.2,3.2-3.5,4.1h27.3h0.2c-0.9-1.2-1.5-2.5-1.6-3.7l0.9-4.4l1.9-8.9c0.2-1.4,0.5-2.6,0.9-3.5h14.4h0.2c0,0.5,0,0.9-0.1,1.3
		c-0.1,0.4-0.2,0.8-0.3,1.2l-2.1,10l-1,4.6c-0.8,1.4-1.8,2.6-2.8,3.5h26.6h0.2c-0.4-0.7-0.6-1.3-0.8-2c-0.2-0.6-0.3-1.3-0.4-2
		l0.9-4.1l8.5-39.9C271.6,67.5,272.8,66.1,274.3,65.1z"/>
	<path d="M292.9,114.3l0.1-0.9l0.9-4.3l2.3-10.9c0.2-3.6-0.8-5.6-3.1-5.8l-3.6-0.5h-0.2h-18.9l-0.6,2.8l-0.7,3.4l2.5-1.2h14.1h0.2
		c1,0.2,1.3,0.8,1,1.8c-0.2,1-0.9,1.6-2.2,1.8h-0.2h-6.9c-3.4,0.3-5.9,0.9-7.3,2.1c-1.4,1.1-2.3,3.3-2.8,6.5c0,0,0,0,0,0
		c-0.7,2.9-0.6,5.6,0.2,8.1l1.4,0.8h11.1h0.2l1-0.5c0.8-0.7,1.3-1.4,1.5-2.1l0.1,0.3l-0.1,2.2h8.1c0.7-0.7,1.4-1.2,1.9-1.6
		C292.8,115.6,292.8,115,292.9,114.3z M277,112.3l-0.1-1.1l0.5-2.1l0.4-1.8c0.2-1.4,0.7-2.2,1.6-2.2h2.8h0.2c1.2-0.1,1.9,0,2.2,0.2
		l-0.8,3.9l-0.1,0.5l-0.2,1.2c-0.1,0.4-0.2,0.7-0.2,0.8C280.9,113.1,278.8,113.3,277,112.3z"/>
	<path id="XMLID_26_" d="M322.2,115.6l1.4-6.6l3.1-14.5c0.4-1.1,0.9-2.1,1.6-3h-0.2H317l0.4,1.4l0.1,0.9l-3.3,15.2l-0.1,0.5
		l-0.5,2.1c-2.4,1.3-4.4,1.5-6.1,0.4v-0.8l0.5-2.2l2.8-13.3c0.3-0.7,0.5-1.3,0.8-2c0.3-0.7,0.6-1.4,1-2.1h-0.2h-11.5l1,1.5
		l-3.1,14.8c-0.1,0.4-0.2,0.8-0.3,1.1c-0.3,1.1-0.4,2-0.5,2.9c-0.1,1.2-0.1,2.3,0,3.2c0.1,1.9,1.9,2.8,5.4,2.5l5,0.1
		c2.4,0,4-0.9,4.8-2.6l-0.6,2.7h9.8c0.1-0.1,0.3-0.2,0.4-0.3L322.2,115.6z"/>
	<path id="XMLID_25_" d="M349,117.7h0.2l1.7-0.6c0.4-0.3,0.8-0.6,1.1-0.9c0.3-0.3,0.6-0.6,0.9-1l0.8-1.7l0.4-0.8l0.5-2l0.3-1.6
		l0.5-2.5c0.5-2.8-1.5-4.2-6-4.1c-2.4,0.1-4.3,0.1-5.8,0c-1.5,0-2.6-0.2-3.2-0.3l-0.3-0.6l0.7-3.1l0.4-0.9c0.3-0.4,0.6-0.6,1-0.8
		h4.5h0.2c0.9,1,1,2.3,0.4,3.7h9.3h0.2c1.3-3.9,0.8-6.8-1.5-8.7l-1.1-0.2H354h-18.5c-2.1,0.9-3.6,2.1-4.4,3.5l-2.3,11
		c0.3,0.5,0.5,0.8,0.7,0.9c0.2,0.2,0.3,0.3,0.4,0.4l0.7,0.2l1.4,0.4l13-0.1c1,0.1,1.3,0.5,1,1.4c0,0,0,0,0,0
		c-0.2,0.9-0.8,1.4-1.8,1.7l-14,0.1c-0.6-0.5-1.2-0.9-1.8-1.3l-0.6,5.1c1.7-0.7,3.7-1.3,5.9-1.6c0.2,0,0.3,0,0.5,0
		c0.7,0,1.3,0.3,1.7,0.9c0.5,0.6,0.8,1.7,0.8,2.4c0,0.6-0.2,1.1-0.4,1.4H349z"/>
	<path id="XMLID_24_" class="st0" d="M139.3,86.8c-0.7,0.4-1.1,1.4-1.3,2.1c-0.1,0.2-0.1,0.3-0.1,0.4c0.1,0,0.1,0,0.2-0.1
		c0,0,0,0,0,0c0.6-0.1,1.9-0.5,3.4-1c0.1,0,0.2-0.1,0.3-0.1c0,0,0,0,0,0c3.1-1.2,7.3-3.5,10.4-7.5c5.2-6.7,5.7-10.3,6-12.3l0-0.3
		c0.3-2.1,1.2-5.8,2.1-7.6c0.9-1.6,2.9-8,1.3-12.8c-0.3-1-0.6-1.8-0.9-2.5c-1-2.6-1.5-3.9-1.2-9.8c0.2-3.7-0.6-5.3-1.3-6.1
		c-0.5-0.5-1.1-0.6-1.4-0.7c0.4,0.8,1.5,3.8-1.1,7.1c-2.5,3.2-1.3,7.3-0.6,9.5c0.1,0.3,0.2,0.6,0.2,0.8c0.4,1.6,0.6,9.3-2.5,12.6
		l-0.3,0.3l0-0.4c0-0.1-0.2-7-2.2-10.5c-1.8-3.2-0.9-5.2-0.4-6.4c0.1-0.2,0.1-0.3,0.2-0.5c0.4-1.2,0.5-4.2,0-5.4
		c-0.6-1.3,0.1-3.2,0.6-4.7c0.5-1.3,1.2-8.9-6.3-12.2c0.7,1.4,2.8,6.1,1.6,8.2c-1.2,2-0.7,5.3-0.5,6.3c0,0.2,0,0.3,0,0.4v0.2l-0.2,0
		c-0.1,0-0.1,0-1.5-2.7c-1.8-3.5-5.2-9.9-7.2-12.6c-0.2-0.2-0.4-0.5-0.6-0.8c-2.9-3.9-7.2-9.7-5.6-18c-1.3,2-5.1,8.7-2.6,17.9
		c2.9,10.9,3.5,14,1.2,17.6c-1.9,3.2-2.6,5.6-2.3,7.9c0.3,1.9-0.2,2.3-0.4,2.6c0,0-0.1,0.1-0.1,0.1l-0.2,0.4l0-0.4
		c0,0-0.4-4.3-2.7-8.2c-2-3.3-1.2-4.9-0.5-6.6c0.2-0.3,0.3-0.7,0.5-1.1c0.7-1.9,1.3-5.2,1.2-7.2c-0.5,1.9-2.1,6.9-4.3,8.8
		c-2.6,2.4-1.9,8.1-1.1,10.4c0.8,2.4,2.4,8.2,0.3,11.5c-2.1,3.3-2,6.7-1.9,7.1c0.2,0.7-0.1,3.3-0.8,4l-0.1,0.1l-0.1-0.2
		c-0.1-0.1-2.2-3.5,0.3-10.1c2-5.2,0.2-7.5-0.5-8.3c0.1,1.1,0.1,4.2-2.5,7c-2.5,2.7-2.1,8.7-1.5,11.4c0.3,1.6,0.6,6.4,0.2,9
		c-0.6,3.3,4.8,13.8,12.4,15.9c0.2-0.6,0.6-3.4-2.5-7.2c-3.4-4.3-3-6-2.1-9.8c0.1-0.4,0.2-0.7,0.3-1.1c1.1-4.5,0.3-7,0.3-7l0.3-0.1
		c0.1,0.2,1.6,4.5,1,6.4c-0.5,1.4,0.3,2.3,1.3,3.5c0.7,0.8,1.5,1.8,2,3c-0.1-1.8-0.3-5.2-0.9-7.7c-0.8-3.9,0.7-6.3,2.1-8.1
		c1.5-1.8,1.5-3.9,1.5-4.8v0l0.3,0c0,0,0.6,3,1.3,4.4c0.6,1.2,3.5,8.4,2.6,13.2c1.3-1.4,5-6.3,2.1-13.3c-3.6-8.7-2.2-12.6-1.4-14.9
		l0.3,0.1c0,0.1,0.1,7.4,5,11.8c5.6,5,1.6,13.7,1.6,13.7c-0.6,1.2-0.6,2.9-0.5,4.3c0,0.2,0,0.4,0,0.6c0,0.8,0,1.5-0.1,2
		c1.3-1.6,4.1-5.7,4-10.7l0.3,0c0,0.1,1.7,7.4-2.1,15.4c0,0,0,0,0,0c-0.4,0.7-1.1,1.9-1.8,2.6C139.7,86.6,139.5,86.7,139.3,86.8z"/>
	<path id="XMLID_23_" class="st1" d="M164.2,132.2c-1.4,0.4-3,1.9-3.6,3.7c2.4-1,4-3,4-3.5C164.6,132.3,164.4,132.1,164.2,132.2z"/>
	<path id="XMLID_22_" class="st1" d="M227.9,134.5L227.9,134.5L227.9,134.5l-0.1,0.1C227.8,134.6,227.9,134.5,227.9,134.5z"/>
	<path id="XMLID_21_" class="st1" d="M249.9,129.3L249.9,129.3c2-1.9,3.6-4.7,4-6.3C252.5,123.7,251.1,126.4,249.9,129.3z"/>
	<path id="XMLID_20_" class="st1" d="M302.3,125.9c-1.4,0.4-3,1.9-3.6,3.7c2.4-1,4-3,4-3.5C302.6,126,302.5,125.8,302.3,125.9z"/>
	<path id="XMLID_19_" class="st1" d="M355.6,124.5L355.6,124.5c2-1.9,3.6-4.7,4-6.3C358.3,118.9,356.8,121.5,355.6,124.5z"/>
	<path id="XMLID_18_" class="st1" d="M364,124.1L364,124.1c2-1.9,3.6-4.7,4-6.3C366.7,118.5,365.2,121.1,364,124.1z"/>
	<path d="M155.5,123.4c-1.9-1.1-4.7-1.3-6.8-1.2c-2.9,0.1-6.9,1.1-9.5,2.4c-1.4,0.7-2.3,1.3-2.5,2.9c-0.1,0.5-0.3,1.5-0.3,2
		c0,0.6,0.5,1,1.1,0.9c1.3-0.1,3.3-1,4.6-1.3c0.3,0,0.9-0.2,0.8-0.5c0-0.4-1.4-0.2-1.5-0.2l-0.8,0l0-0.1c1.9-0.8,3.9-1.3,6-1.6
		l-6.3,8.7c-1.2,1.6-2.5,3.5-2.4,5.6c0,0.5,0.2,1.2,0.7,1.5c0.6,0.3,1.8,0.2,2.4,0.2c3.5-0.2,8.5-1.8,11.5-3.7
		c3.2-2,6.4-5.4,6.2-9.4C158.6,127.1,157.6,124.6,155.5,123.4z M149.1,137.9c-1.9,0.8-4.5,1.4-6.4,1.5c-1.2,0-1.5-0.3-1.6-0.4
		c-0.2-0.4-0.3-0.7,0.5-1.9l5.8-8.4c0.5-0.8,0.6-1.2,0.8-2.1c2.5,0,8.3-0.2,8.5,3.5C156.8,132.4,154.9,135.5,149.1,137.9z"/>
	<path d="M157.7,138.3c0.1,1.9,1.2,3.6,3.2,3.5c2.8-0.1,5.8-2.9,7.4-5l0-0.1c0.5-0.6,1.1-1.1,1.5-1.9l2.9-0.8l0.1,0.1
		c-1.1,1.4-2.5,3-2.4,4.9c0,1.1,0.8,2.1,2,2.1c1.6-0.1,4.7-3.3,5.7-4.6l-0.2-1c-0.9,0.7-2.6,2.7-3.8,2.7c-0.4,0-0.9-0.3-0.9-0.7
		c-0.1-1.1,1.3-2.6,2-3.3c0.6-0.6,1.1-1,1.1-1.9c-0.1-0.5-0.3-0.9-0.7-1.5c-0.3-0.3-1.8,0.1-4.5,0.6c0.1-0.3,0.2-0.5,0.2-0.8
		c0-0.3-0.2-0.5-0.5-0.5c-0.7,0-3.5,2.2-3.4,4.2c0,0.6,0.2,0.8,0.8,0.8c-0.3,0.5-0.7,1-1.1,1.5c-1.4,1.2-3.2,2.6-4.8,2.7
		c-0.9,0-1.8-0.3-1.8-1.4l0-0.6c5.3-2,6.6-4.2,6.5-5.5c-0.1-1.1-1.2-1.3-2.1-1.3C161.3,130.7,157.4,134.6,157.7,138.3z M160.6,135.9
		c0.7-1.9,2.2-3.3,3.6-3.7c0.2-0.1,0.3,0.1,0.4,0.3C164.7,133,163.1,135,160.6,135.9z"/>
	<path id="XMLID_13_" d="M261.5,126.5c1.2-0.1,2.2-1.5,2.1-2.6c0-0.5-0.5-0.9-1-0.8c-1.1,0.1-2.4,1.1-2.3,2.3
		C260.3,126,260.8,126.5,261.5,126.5z"/>
	<path d="M303,124.2c-3.2,0.1-6.6,3.2-7.2,6.5c-0.9,0.6-2.7,2.1-3.6,2.1c-0.3,0-0.6-0.2-0.6-0.6c0-0.3-0.1-0.4,1.5-2.6
		c0.3-0.4,1.4-1.7,1.4-2.2c0-0.6-0.7-1.3-1.4-1.3c-1.5,0.1-6.5,4.8-7.8,6l-0.1-1.1c1.7-1.9,10.2-11.6,10.2-13.5
		c0-0.6-0.8-0.7-1.2-0.7c-1,0-6.3,5.2-9.4,10.9c-0.5,1-1,1.9-1.2,2.8c-1.6,1.3-3.8,3.3-5.9,3.4c-1.5,0.1-2.2-0.8-2.2-1.4
		c0-0.8,0.5-1.2,1-1.7l2.3-1.9c0.1,0.5,0.4,1.2,1,1.2c0.8,0,2.9-2.3,2.8-3.9c0-0.8-0.5-1.3-1.3-1.2c-1.6,0.1-4.2,1.7-5.4,2.7
		c-1.7,1.4-2.5,2.3-2.5,4.5l-0.3-0.9l-1.6,1.4c-1.3,1.1-2.4,2-4.2,1.8c1.8-1.2,3.5-3,3.4-5.3c-0.1-1.2-0.5-2.2-0.7-3.2
		c-0.1-0.8-0.3-1-1.1-1c-1,0-1.5,1-1.5,1.9l-5.9,5.9c-0.2,0.2-0.6,0.7-0.6,1c0,0,0,0,0,0c-0.5,0.3-1.1,0.6-1.7,0.6
		c-1.3,0.1-1.7-0.5-1.6-1.7c1.1-0.9,3.8-3.5,3.8-4.9c0-0.6-0.8-0.8-1.3-0.7c-1.4,0.1-3.8,2.3-4.6,5c-1.1,1.1-3.1,2.9-4.6,2.9
		c-0.8,0-1.2-0.5-1.5-1.1c-0.2-0.7-0.1-1.5,0.1-1.9c5.8-6.2,6.5-8.7,6.5-11.4c0-0.4-0.1-1-0.6-1c-0.9,0-3.5,2.8-5.8,6
		c-1.3,1.8-2.3,4.2-2.6,6.5c-0.8,0.7-1.6,1.8-2.8,1.6c0.5-1.1,1-2.1,0.9-3.4c0-0.8-0.2-1.4-1.1-1.6c0.3-0.2,0.6-0.4,0.6-0.8
		c0-0.8-1-1-1.6-0.9c-1.7,0.2-3.7,1-5.2,2.3c-1.3,1.1-2.2,2.3-2.3,4c-2.6,2-3.5,2.9-4.4,2.9c-0.6,0-0.9-0.3-0.9-0.9
		c-0.1-1.7,1.4-4.1,2.3-5.4c3.1,0.1,3.3-1,4.5-3.7l-1.8-0.1c0.3-0.4,1-1.4,1-1.9c0-0.4-0.6-0.5-0.9-0.5c-1.6,0.1-2.2,1.4-3,2.6
		c-3,0.3-3.2,0.7-4.6,3.3l-0.3,0.5c1.5-0.3,1-0.2,2.7-0.2c-1,1.8-2.4,3.3-4.1,4.7l0.1,0.2c-0.8,0.7-1.7,1.3-2.5,1.3
		c-0.4,0-0.9-0.2-0.9-0.6c-0.1-1.3,2.3-3.4,2.3-4.3c0-0.6-0.3-0.9-0.9-1.1c0.2-0.1,1-0.4,1-0.7c0-0.3-0.6-1.4-1.9-1.3
		c-2.7,0.2-8.2,3-9.7,5.9l-1,1c-0.5,0.4-1.7,1.5-2.4,1.5c-0.3,0-0.5-0.2-0.5-0.5c-0.1-1.9,3.3-4.2,3.2-5.3c-0.1-0.6-0.3-1.1-0.5-1.5
		c-0.2-0.4-0.4-0.5-0.5-0.5c-0.8,0-5.8,3.7-8,6.7c-0.1,0.1-0.3,0.4-0.5,0.4c-0.2,0-0.3-0.1-0.3-0.3c0-0.7,3.4-3.7,3.3-4.8
		c0-0.2,0.1-0.6-1.6-0.5c-0.5,0-0.7,0.1-1.1,0.4c-1.1,1-2.2,2.8-2.8,4.4l0,0c-1.2,0.9-2.7,2.4-3.9,2.4c-0.5,0-0.9-0.2-0.9-0.6
		c-0.1-1.3,2.3-3.4,2.3-4.3c0-0.6-0.3-0.9-0.9-1.1c0.2-0.1,1-0.4,1-0.7c0-0.3-0.6-1.4-1.9-1.3c-3.3,0.2-10.4,4.2-10.1,7.7
		c0.1,1.5,1.8,3.2,2.6,3.2c0.6,0,2.4-1.6,2.9-2l2.5-2.2l0.1,0.1c-0.3,0.8-0.9,2.3-0.9,3.2c0,0.8,0.5,1.5,1.4,1.4
		c1.2-0.1,4.1-2.5,5.6-4c0,0.1,0,0.2,0,0.3c0.1,1,0.5,2.7,1.7,2.7c0.8,0,1.7-1.5,2.1-2c1.2-1.7,2.6-3.2,4.1-4.5l0.1,0.1
		c-0.8,1.3-2.3,3.3-2.2,5c0,1,0.6,1.8,1.7,1.8c1.6-0.1,3.5-2.2,5-3.8c0.3,1.4,1.8,3,2.6,2.9c0.6,0,2.4-1.6,2.9-2l2.5-2.2l0.1,0.1
		c-0.3,0.8-0.9,2.3-0.9,3.2c0,0.8,0.5,1.5,1.4,1.4c1.4-0.1,5-3.2,6.1-4.6c-0.3,0.8-0.6,1.8-0.5,2.6c0.1,1.1,0.8,1.9,1.9,1.8
		c2.2-0.1,4.8-2.7,6.4-4.4c0.4,2.2,1.7,3.4,3,3.3c1.8-0.1,3.1-1,4.2-2.3c1.8-0.1,2.9-0.6,4-1.9c0,0.1,0,0.2,0,0.3
		c0.1,1.7,0.6,3.6,2.7,3.5c2-0.1,4.1-2.2,5.6-3.8c0,0.1,0,0.2,0,0.4c0.1,1.4,0.9,3.3,2.6,3.2c1.5-0.1,3.2-1.5,4.4-2.8
		c0.8,1.6,2.7,2.4,4.4,2.4c2.2,0,5.1-2.6,6.8-4.4c0.1,2.1,1.2,4,3.4,3.9c2.3-0.1,4.8-2.3,6.5-4.1c0,0.1,0,0.2,0,0.3
		c0,0.6,0.3,2.8,1.3,2.8c0.9,0,2.2-3.1,6.8-6.6l0.1,0.1c-1,1.4-2.8,3.6-2.7,5.4c0,0.8,0.5,1.5,1.4,1.4c1.4-0.1,4.3-2.5,5.7-3.7
		c0.2,1.8,1.2,3.6,3.2,3.5c2.8-0.1,5.8-2.9,7.4-5l-0.3-1.1c-1.4,1.3-3.7,3.4-5.7,3.5c-0.9,0-1.8-0.3-1.8-1.4l0-0.6
		c5.3-2,6.6-4.2,6.5-5.5C305,124.3,303.9,124.2,303,124.2z M265.7,134c-0.6-0.7-1.2-1.6-2.3-1.6l3.9-4c0.2,0.9,0.4,1.7,0.5,2.3
		C267.8,132.4,267.4,132.9,265.7,134z M249.9,129.4L249.9,129.4c1.1-3,2.6-5.6,4-6.4C253.5,124.6,251.8,127.4,249.9,129.4z
		 M227.8,134.4L227.8,134.4L227.8,134.4c0.1,0.1,0.1,0.1,0,0.2L227.8,134.4z M222.4,130.8L222.4,130.8c-5.3,5.9-6.1,5.9-6.7,6
		c-0.4,0.1-0.6-0.4-0.6-0.5C215.1,134.9,215.8,133.1,222.4,130.8z M195.8,132L195.8,132c-5.3,5.9-6.1,5.9-6.7,6
		c-0.4,0.1-0.6-0.4-0.6-0.5C188.5,136.1,189.2,134.3,195.8,132z M240.6,133.4c0,0.5,0.2,0.8,0.4,1.3c-0.6,0.6-1.2,1.2-2.1,1.2
		c-0.7,0-1.2-0.2-1.3-1c0-0.9,0.4-2,1-2.6c0.8-0.9,2.1-1.6,3-2.2C241.8,130.1,240.6,132,240.6,133.4z M298.6,129.6
		c0.7-1.9,2.2-3.3,3.6-3.7c0.2-0.1,0.3,0.1,0.4,0.3C302.7,126.6,301.1,128.7,298.6,129.6z"/>
	<path id="XMLID_4_" d="M349.8,121.2c0,0.7,0.5,1.2,1.2,1.2c1.2-0.1,2.2-1.5,2.1-2.6c0-0.5-0.5-0.9-1-0.8
		C351,119,349.7,120.1,349.8,121.2z"/>
	<path d="M365,129.8c-0.8,0-1.2-0.5-1.5-1.1c-0.2-0.7-0.1-1.5,0.1-2c5.8-6.2,6.5-8.7,6.5-11.4c0-0.4-0.1-1-0.6-1
		c-0.9,0-3.5,2.8-5.8,6c-1.4,1.9-2.5,4.5-2.7,7c-1.1,1.1-3.1,2.8-4.5,2.9c-0.8,0-1.2-0.5-1.5-1.1c-0.2-0.7-0.1-1.5,0.1-2
		c5.8-6.2,6.5-8.7,6.5-11.4c0-0.4-0.1-1-0.6-1c-0.9,0-3.5,2.8-5.8,6c-1.5,2-2.5,4.7-2.7,7.3l0-0.2c-1.1,0.9-2.5,2.4-4,2.5
		c-1.3,0.1-1.7-0.5-1.6-1.7c1.1-0.9,3.8-3.5,3.8-4.9c0-0.6-0.8-0.8-1.3-0.7c-1.3,0.1-3.7,2.3-4.6,4.9c-0.9,0.8-2.5,2.5-3.6,2.6
		c-0.4,0-0.9-0.3-0.9-0.7c-0.1-1.1,1.3-2.6,2-3.3c0.6-0.6,1.1-1,1.1-1.9c-0.1-0.5-0.3-0.9-0.7-1.5c-0.3-0.3-1.8,0.1-4.5,0.6
		c0.1-0.3,0.2-0.5,0.2-0.8c0-0.3-0.2-0.5-0.5-0.5c-0.7,0-3.5,2.2-3.4,4.2c0,0.6,0.2,0.8,0.8,0.8c-0.1,0.2-0.2,0.3-0.3,0.5
		c0-0.1,0-0.2,0-0.4l-6,4.3l-0.1-0.1c2-3.5,3.7-6,4.8-8.5c0.1-0.2,0.4-0.7,0.3-1c0-0.4-0.4-0.6-0.7-0.7c-0.2-0.1-0.8-0.4-1.1-0.4
		c-0.3,0-0.5,0.2-0.6,0.4l-9.9,8.3c-0.5,0.4-1.3,0.9-1.9,1c-0.6,0-0.9-0.4-1-1c-0.4-1.4,4.3-8.5,12.6-11.3l0.1,0.1l-1.1,1
		c-0.2,0.1-0.7,0.6-0.7,0.9c0,0.2,0.2,0.4,0.4,0.4c0.3,0,0.8-0.1,4.6-2.8c0.5-0.4,1.1-0.8,1.1-1.6c0-0.5-0.3-1.4-0.6-1.8
		c-0.3-0.4-0.6-0.5-1.2-0.4c-7.7,1.2-12.6,5.4-14.5,7.7c-1.6,1.8-3.2,4.8-3.1,7.2c0.1,2,1.1,3.6,3.3,3.8c1.6,0.1,4.1-2,5.4-3.1
		l3-2.4l0.1,0.1c-1,2.5-2.6,4.9-4.2,7.2c-2.7,1.5-5.1,4.1-4.9,6c0.1,0.6,0.4,1.2,1.1,1.1c1.9-0.1,6-4.9,7-6.5l4.4-3.3
		c0.9-0.7,1.6-1.2,2.1-1.7l0.1,0.7c1.2-1.3,2.3-2.1,3.2-3.6l2.9-0.8l0.1,0.1c-1.1,1.4-2.5,3-2.4,4.9c0,1.1,0.8,2.1,2,2.1
		c1.3-0.1,3.7-2.3,5-3.8c0,0.1,0,0.3,0,0.4c0.1,1.4,0.9,3.3,2.6,3.2c2-0.1,4.2-2.4,5.4-4c0.1,1.6,0.6,3.6,2.7,3.5
		c2.1-0.1,4.3-2.3,5.8-4c0,0,0,0.1,0,0.1c0.1,1.7,0.6,3.6,2.7,3.5c2.4-0.1,4.9-3.1,6.4-4.7l-0.4-0.8
		C368.6,127.9,366.5,129.8,365,129.8z M364.1,124.1L364.1,124.1c1.1-3,2.6-5.6,4-6.4C367.6,119.4,366,122.2,364.1,124.1z
		 M355.7,124.5L355.7,124.5c1.1-3,2.6-5.6,4-6.4C359.2,119.8,357.6,122.6,355.7,124.5z"/>
</g>
</svg>
